<svg width="18" height="22" viewBox="0 0 18 22" fill="none" xmlns="http://www.w3.org/2000/svg">
<path d="M8.80005 0.394897C4.00855 0.394897 0.138489 4.38633 0.138489 9.29183C0.138489 13.1614 5.20643 18.2497 7.81718 21.1138C8.40076 21.7841 9.19935 21.7536 9.81364 21.1138C12.578 18.3411 17.4923 13.1614 17.4923 9.29183C17.4923 4.38633 13.6223 0.394897 8.83077 0.394897H8.80005ZM6.37359 5.87931C7.08003 5.87931 7.63289 6.45822 7.63289 7.12853C7.63289 7.79885 7.04931 8.37776 6.37359 8.37776C5.69786 8.37776 5.11428 7.79885 5.11428 7.12853C5.11428 6.45822 5.69786 5.87931 6.37359 5.87931ZM8.70791 13.8622C5.60572 13.8622 4.80713 10.7543 4.80713 10.7543H12.6087C12.6087 10.7543 11.8101 13.8622 8.70791 13.8622ZM11.3187 8.40823C10.6122 8.40823 10.0594 7.82932 10.0594 7.159C10.0594 6.48869 10.6429 5.90978 11.3187 5.90978C11.9944 5.90978 12.578 6.48869 12.578 7.159C12.578 7.82932 11.9944 8.40823 11.3187 8.40823Z" fill="#F2BE41"/>
</svg>
